<mxfile host="Electron" modified="2024-03-06T16:41:10.817Z" agent="Mozilla/5.0 (Windows NT 10.0; Win64; x64) AppleWebKit/537.36 (KHTML, like Gecko) draw.io/22.0.0 Chrome/114.0.5735.289 Electron/25.8.3 Safari/537.36" etag="LKazG9f0vmiyB02cP1N_" version="22.0.0" type="device">
  <diagram name="Page-1" id="2YBvvXClWsGukQMizWep">
    <mxGraphModel dx="901" dy="527" grid="1" gridSize="10" guides="1" tooltips="1" connect="1" arrows="1" fold="1" page="1" pageScale="1" pageWidth="850" pageHeight="1100" math="0" shadow="0">
      <root>
        <mxCell id="0" />
        <mxCell id="1" parent="0" />
        <mxCell id="u08hA8u2R7ERL39mNpoH-1" value="utenteConnesso:Utente" style="shape=umlActor;verticalLabelPosition=top;verticalAlign=bottom;outlineConnect=0;fontFamily=Tahoma;labelPosition=center;align=center;" parent="1" vertex="1">
          <mxGeometry x="70" y="40" width="20" height="40" as="geometry" />
        </mxCell>
        <mxCell id="u08hA8u2R7ERL39mNpoH-7" value="" style="html=1;points=[[0,0,0,0,5],[0,1,0,0,-5],[1,0,0,0,5],[1,1,0,0,-5]];perimeter=orthogonalPerimeter;outlineConnect=0;targetShapes=umlLifeline;portConstraint=eastwest;newEdgeStyle={&quot;curved&quot;:0,&quot;rounded&quot;:0};" parent="1" vertex="1">
          <mxGeometry x="75" y="110" width="10" height="990" as="geometry" />
        </mxCell>
        <mxCell id="u08hA8u2R7ERL39mNpoH-12" value="HomePage" style="shape=umlLifeline;perimeter=lifelinePerimeter;whiteSpace=wrap;html=1;container=1;dropTarget=0;collapsible=0;recursiveResize=0;outlineConnect=0;portConstraint=eastwest;newEdgeStyle={&quot;curved&quot;:0,&quot;rounded&quot;:0};participant=umlBoundary;labelPosition=center;verticalLabelPosition=top;align=center;verticalAlign=bottom;" parent="1" vertex="1">
          <mxGeometry x="250" y="40" width="50" height="1060" as="geometry" />
        </mxCell>
        <mxCell id="u08hA8u2R7ERL39mNpoH-13" value="" style="html=1;points=[[0,0,0,0,5],[0,1,0,0,-5],[1,0,0,0,5],[1,1,0,0,-5]];perimeter=orthogonalPerimeter;outlineConnect=0;targetShapes=umlLifeline;portConstraint=eastwest;newEdgeStyle={&quot;curved&quot;:0,&quot;rounded&quot;:0};" parent="u08hA8u2R7ERL39mNpoH-12" vertex="1">
          <mxGeometry x="20" y="70" width="10" height="20" as="geometry" />
        </mxCell>
        <mxCell id="u08hA8u2R7ERL39mNpoH-24" value="" style="html=1;points=[[0,0,0,0,5],[0,1,0,0,-5],[1,0,0,0,5],[1,1,0,0,-5]];perimeter=orthogonalPerimeter;outlineConnect=0;targetShapes=umlLifeline;portConstraint=eastwest;newEdgeStyle={&quot;curved&quot;:0,&quot;rounded&quot;:0};" parent="u08hA8u2R7ERL39mNpoH-12" vertex="1">
          <mxGeometry x="20" y="160" width="10" height="10" as="geometry" />
        </mxCell>
        <mxCell id="u08hA8u2R7ERL39mNpoH-34" value="" style="html=1;points=[[0,0,0,0,5],[0,1,0,0,-5],[1,0,0,0,5],[1,1,0,0,-5]];perimeter=orthogonalPerimeter;outlineConnect=0;targetShapes=umlLifeline;portConstraint=eastwest;newEdgeStyle={&quot;curved&quot;:0,&quot;rounded&quot;:0};" parent="u08hA8u2R7ERL39mNpoH-12" vertex="1">
          <mxGeometry x="20" y="240" width="10" height="10" as="geometry" />
        </mxCell>
        <mxCell id="u08hA8u2R7ERL39mNpoH-14" value="seleziona &quot;Inserisci un post&quot;" style="html=1;verticalAlign=bottom;startArrow=none;endArrow=block;startSize=8;curved=0;rounded=0;entryX=0;entryY=0;entryDx=0;entryDy=5;startFill=0;fontSize=13;labelPosition=center;verticalLabelPosition=top;align=center;textDirection=ltr;" parent="1" target="u08hA8u2R7ERL39mNpoH-13" edge="1">
          <mxGeometry relative="1" as="geometry">
            <mxPoint x="85" y="115" as="sourcePoint" />
          </mxGeometry>
        </mxCell>
        <mxCell id="u08hA8u2R7ERL39mNpoH-16" value="" style="html=1;points=[[0,0,0,0,5],[0,1,0,0,-5],[1,0,0,0,5],[1,1,0,0,-5]];perimeter=orthogonalPerimeter;outlineConnect=0;targetShapes=umlLifeline;portConstraint=eastwest;newEdgeStyle={&quot;curved&quot;:0,&quot;rounded&quot;:0};" parent="1" vertex="1">
          <mxGeometry x="570" y="130" width="10" height="170" as="geometry" />
        </mxCell>
        <mxCell id="u08hA8u2R7ERL39mNpoH-17" value="inserisciPostClicked()" style="html=1;verticalAlign=bottom;startArrow=none;endArrow=block;startSize=8;curved=0;rounded=0;startFill=0;fontSize=13;" parent="1" edge="1">
          <mxGeometry relative="1" as="geometry">
            <mxPoint x="280" y="130" as="sourcePoint" />
            <mxPoint x="570" y="130" as="targetPoint" />
          </mxGeometry>
        </mxCell>
        <mxCell id="u08hA8u2R7ERL39mNpoH-19" value="Controller" style="ellipse;shape=umlControl;aspect=fixed;labelPosition=center;verticalLabelPosition=top;align=center;verticalAlign=bottom;" parent="1" vertex="1">
          <mxGeometry x="555" y="40" width="40" height="40" as="geometry" />
        </mxCell>
        <mxCell id="u08hA8u2R7ERL39mNpoH-20" value="ALT" style="shape=umlFrame;whiteSpace=wrap;html=1;pointerEvents=0;width=50;height=15;" parent="1" vertex="1">
          <mxGeometry x="510" y="140" width="1010" height="940" as="geometry" />
        </mxCell>
        <mxCell id="u08hA8u2R7ERL39mNpoH-21" value="[gruppiIscrizioni.isEmpty()]" style="text;html=1;align=center;verticalAlign=middle;resizable=0;points=[];autosize=1;strokeColor=none;fillColor=none;fontSize=13;" parent="1" vertex="1">
          <mxGeometry x="585" y="140" width="180" height="30" as="geometry" />
        </mxCell>
        <mxCell id="u08hA8u2R7ERL39mNpoH-22" value="" style="line;strokeWidth=1;fillColor=none;align=left;verticalAlign=middle;spacingTop=-1;spacingLeft=3;spacingRight=3;rotatable=0;labelPosition=right;points=[];portConstraint=eastwest;strokeColor=inherit;" parent="1" vertex="1">
          <mxGeometry x="510" y="226" width="1010" height="8" as="geometry" />
        </mxCell>
        <mxCell id="u08hA8u2R7ERL39mNpoH-23" value="mostraMessaggioDiDialogo(&quot;Non sei iscritto a nessun gruppo!&quot;,&quot;Errore!&quot;)" style="verticalAlign=bottom;endArrow=block;curved=0;rounded=0;fontSize=9;horizontal=1;labelBorderColor=none;spacingTop=0;spacing=5;entryX=1;entryY=0;entryDx=0;entryDy=5;entryPerimeter=0;" parent="1" edge="1">
          <mxGeometry width="80" relative="1" as="geometry">
            <mxPoint x="570" y="199.71" as="sourcePoint" />
            <mxPoint x="280" y="199.71" as="targetPoint" />
          </mxGeometry>
        </mxCell>
        <mxCell id="u08hA8u2R7ERL39mNpoH-27" value="" style="line;strokeWidth=1;fillColor=none;align=left;verticalAlign=middle;spacingTop=-1;spacingLeft=3;spacingRight=3;rotatable=0;labelPosition=right;points=[];portConstraint=eastwest;strokeColor=inherit;horizontal=0;direction=south;dashed=1;" parent="1" vertex="1">
          <mxGeometry x="571" y="80" width="8" height="50" as="geometry" />
        </mxCell>
        <mxCell id="u08hA8u2R7ERL39mNpoH-28" value="InserisciPostPage" style="shape=umlLifeline;perimeter=lifelinePerimeter;container=1;dropTarget=0;collapsible=0;recursiveResize=0;outlineConnect=0;portConstraint=eastwest;newEdgeStyle={&quot;curved&quot;:0,&quot;rounded&quot;:0};participant=umlBoundary;verticalAlign=bottom;labelPosition=center;verticalLabelPosition=top;align=center;" parent="1" vertex="1">
          <mxGeometry x="810" y="40" width="50" height="1060" as="geometry" />
        </mxCell>
        <mxCell id="u08hA8u2R7ERL39mNpoH-29" value="" style="html=1;points=[[0,0,0,0,5],[0,1,0,0,-5],[1,0,0,0,5],[1,1,0,0,-5]];perimeter=orthogonalPerimeter;outlineConnect=0;targetShapes=umlLifeline;portConstraint=eastwest;newEdgeStyle={&quot;curved&quot;:0,&quot;rounded&quot;:0};" parent="u08hA8u2R7ERL39mNpoH-28" vertex="1">
          <mxGeometry x="20" y="226" width="10" height="404" as="geometry" />
        </mxCell>
        <mxCell id="8B0qtVxzFhKtFc5LF8vU-15" value="" style="html=1;points=[[0,0,0,0,5],[0,1,0,0,-5],[1,0,0,0,5],[1,1,0,0,-5]];perimeter=orthogonalPerimeter;outlineConnect=0;targetShapes=umlLifeline;portConstraint=eastwest;newEdgeStyle={&quot;curved&quot;:0,&quot;rounded&quot;:0};" vertex="1" parent="u08hA8u2R7ERL39mNpoH-28">
          <mxGeometry x="20" y="890" width="10" height="80" as="geometry" />
        </mxCell>
        <mxCell id="u08hA8u2R7ERL39mNpoH-30" value="setCbSelezionaPage(utenteConnesso.getGruppiIscrizioni)" style="html=1;verticalAlign=bottom;startArrow=none;endArrow=block;startSize=8;curved=0;rounded=0;startFill=0;fontSize=9;" parent="1" edge="1">
          <mxGeometry relative="1" as="geometry">
            <mxPoint x="580" y="266" as="sourcePoint" />
            <mxPoint x="834.5" y="266" as="targetPoint" />
          </mxGeometry>
        </mxCell>
        <mxCell id="u08hA8u2R7ERL39mNpoH-31" value="setVisible(false)" style="verticalAlign=bottom;endArrow=block;curved=0;rounded=0;fontSize=13;" parent="1" target="u08hA8u2R7ERL39mNpoH-34" edge="1">
          <mxGeometry width="80" relative="1" as="geometry">
            <mxPoint x="570" y="280" as="sourcePoint" />
            <mxPoint x="274.875" y="276" as="targetPoint" />
          </mxGeometry>
        </mxCell>
        <mxCell id="u08hA8u2R7ERL39mNpoH-32" value="setVisible(true)" style="verticalAlign=bottom;endArrow=block;curved=0;rounded=0;fontSize=13;" parent="1" edge="1">
          <mxGeometry width="80" relative="1" as="geometry">
            <mxPoint x="580" y="300" as="sourcePoint" />
            <mxPoint x="831" y="300" as="targetPoint" />
          </mxGeometry>
        </mxCell>
        <mxCell id="u08hA8u2R7ERL39mNpoH-33" value="[!gruppiIscrizioni.isEmpty()]" style="text;html=1;align=center;verticalAlign=middle;resizable=0;points=[];autosize=1;strokeColor=none;fillColor=none;spacing=2;spacingTop=-10;fontSize=13;" parent="1" vertex="1">
          <mxGeometry x="585" y="234" width="180" height="20" as="geometry" />
        </mxCell>
        <mxCell id="u08hA8u2R7ERL39mNpoH-35" value="inserisceÂ  una descrizione" style="verticalAlign=bottom;endArrow=block;curved=0;rounded=0;fontSize=13;" parent="1" edge="1">
          <mxGeometry x="-0.0201" width="80" relative="1" as="geometry">
            <mxPoint x="85" y="320" as="sourcePoint" />
            <mxPoint x="830" y="320" as="targetPoint" />
            <mxPoint as="offset" />
          </mxGeometry>
        </mxCell>
        <mxCell id="u08hA8u2R7ERL39mNpoH-36" value="" style="html=1;verticalAlign=bottom;endArrow=block;curved=0;rounded=0;entryX=0;entryY=1;entryDx=0;entryDy=-5;entryPerimeter=0;" parent="1" edge="1">
          <mxGeometry width="80" relative="1" as="geometry">
            <mxPoint x="85" y="350" as="sourcePoint" />
            <mxPoint x="830" y="350" as="targetPoint" />
          </mxGeometry>
        </mxCell>
        <mxCell id="u08hA8u2R7ERL39mNpoH-37" value="&amp;nbsp; &amp;nbsp; seleziona un gruppo" style="edgeLabel;html=1;align=center;verticalAlign=middle;resizable=0;points=[];fontSize=13;" parent="u08hA8u2R7ERL39mNpoH-36" vertex="1" connectable="0">
          <mxGeometry x="-0.0623" relative="1" as="geometry">
            <mxPoint x="-9" y="-10" as="offset" />
          </mxGeometry>
        </mxCell>
        <mxCell id="u08hA8u2R7ERL39mNpoH-38" value="" style="html=1;verticalAlign=bottom;endArrow=block;curved=0;rounded=0;entryX=0;entryY=1;entryDx=0;entryDy=-5;entryPerimeter=0;" parent="1" edge="1">
          <mxGeometry width="80" relative="1" as="geometry">
            <mxPoint x="85" y="370" as="sourcePoint" />
            <mxPoint x="830" y="370" as="targetPoint" />
          </mxGeometry>
        </mxCell>
        <mxCell id="u08hA8u2R7ERL39mNpoH-39" value="&amp;nbsp; &amp;nbsp; &amp;nbsp;seleziona &quot;CreaPost&quot;" style="edgeLabel;html=1;align=center;verticalAlign=middle;resizable=0;points=[];fontSize=13;" parent="u08hA8u2R7ERL39mNpoH-38" vertex="1" connectable="0">
          <mxGeometry x="-0.0623" relative="1" as="geometry">
            <mxPoint x="-9" y="-10" as="offset" />
          </mxGeometry>
        </mxCell>
        <mxCell id="u08hA8u2R7ERL39mNpoH-42" value="taDescrizione.getText();" style="html=1;align=left;spacingLeft=2;endArrow=block;rounded=0;edgeStyle=orthogonalEdgeStyle;curved=0;rounded=0;fontSize=13;" parent="1" target="u08hA8u2R7ERL39mNpoH-29" edge="1">
          <mxGeometry relative="1" as="geometry">
            <mxPoint x="840" y="380" as="sourcePoint" />
            <Array as="points">
              <mxPoint x="870" y="380" />
              <mxPoint x="870" y="410" />
            </Array>
            <mxPoint x="845" y="410" as="targetPoint" />
          </mxGeometry>
        </mxCell>
        <mxCell id="u08hA8u2R7ERL39mNpoH-44" value="descrizione" style="html=1;align=left;spacingLeft=2;endArrow=open;rounded=0;edgeStyle=orthogonalEdgeStyle;curved=0;rounded=0;dashed=1;endFill=0;fontSize=13;" parent="1" edge="1">
          <mxGeometry relative="1" as="geometry">
            <mxPoint x="840" y="420" as="sourcePoint" />
            <Array as="points">
              <mxPoint x="870" y="420" />
              <mxPoint x="870" y="450" />
            </Array>
            <mxPoint x="840" y="450" as="targetPoint" />
          </mxGeometry>
        </mxCell>
        <mxCell id="u08hA8u2R7ERL39mNpoH-45" value="ALT" style="shape=umlFrame;whiteSpace=wrap;html=1;pointerEvents=0;width=45;height=15;" parent="1" vertex="1">
          <mxGeometry x="780" y="460" width="730" height="610" as="geometry" />
        </mxCell>
        <mxCell id="u08hA8u2R7ERL39mNpoH-46" value="[descrizione.isEmpty]" style="text;html=1;align=center;verticalAlign=middle;resizable=0;points=[];autosize=1;strokeColor=none;fillColor=none;fontSize=13;" parent="1" vertex="1">
          <mxGeometry x="835" y="460" width="150" height="30" as="geometry" />
        </mxCell>
        <mxCell id="u08hA8u2R7ERL39mNpoH-47" value="mostraMessaggioDiDialogo(&quot;Inserisci una descrizione!&quot;,&quot;ATTENZIONE!&quot;)" style="html=1;align=left;spacingLeft=2;endArrow=block;rounded=0;edgeStyle=orthogonalEdgeStyle;curved=0;rounded=0;fontSize=13;" parent="1" edge="1">
          <mxGeometry relative="1" as="geometry">
            <mxPoint x="840" y="500" as="sourcePoint" />
            <Array as="points">
              <mxPoint x="870" y="500" />
              <mxPoint x="870" y="530" />
            </Array>
            <mxPoint x="840" y="530" as="targetPoint" />
          </mxGeometry>
        </mxCell>
        <mxCell id="u08hA8u2R7ERL39mNpoH-49" value="" style="line;strokeWidth=1;fillColor=none;align=left;verticalAlign=middle;spacingTop=-1;spacingLeft=3;spacingRight=3;rotatable=0;labelPosition=right;points=[];portConstraint=eastwest;strokeColor=inherit;" parent="1" vertex="1">
          <mxGeometry x="780" y="550" width="730" height="8" as="geometry" />
        </mxCell>
        <mxCell id="u08hA8u2R7ERL39mNpoH-50" value="cbSelezionaGruppo.getSelectedItem()" style="html=1;align=left;spacingLeft=2;endArrow=block;rounded=0;edgeStyle=orthogonalEdgeStyle;curved=0;rounded=0;fontSize=13;" parent="1" edge="1">
          <mxGeometry relative="1" as="geometry">
            <mxPoint x="840" y="570" as="sourcePoint" />
            <Array as="points">
              <mxPoint x="870" y="570" />
              <mxPoint x="870" y="600" />
            </Array>
            <mxPoint x="840" y="600" as="targetPoint" />
          </mxGeometry>
        </mxCell>
        <mxCell id="u08hA8u2R7ERL39mNpoH-51" value="nomeGruppo" style="html=1;align=left;spacingLeft=2;endArrow=open;rounded=0;edgeStyle=orthogonalEdgeStyle;curved=0;rounded=0;dashed=1;endFill=0;fontSize=13;" parent="1" edge="1">
          <mxGeometry relative="1" as="geometry">
            <mxPoint x="840" y="610" as="sourcePoint" />
            <Array as="points">
              <mxPoint x="870" y="610" />
              <mxPoint x="870" y="640" />
            </Array>
            <mxPoint x="840" y="640" as="targetPoint" />
          </mxGeometry>
        </mxCell>
        <mxCell id="u08hA8u2R7ERL39mNpoH-52" value="creaPostClicked(nomeGruppo,descrizione)" style="verticalAlign=bottom;endArrow=block;curved=0;rounded=0;fontSize=13;spacing=8;exitX=0;exitY=1;exitDx=0;exitDy=-5;exitPerimeter=0;" parent="1" source="u08hA8u2R7ERL39mNpoH-29" target="u08hA8u2R7ERL39mNpoH-54" edge="1">
          <mxGeometry width="80" relative="1" as="geometry">
            <mxPoint x="810" y="670" as="sourcePoint" />
            <mxPoint x="610" y="660" as="targetPoint" />
          </mxGeometry>
        </mxCell>
        <mxCell id="u08hA8u2R7ERL39mNpoH-53" value="" style="line;strokeWidth=1;fillColor=none;align=left;verticalAlign=middle;spacingTop=-1;spacingLeft=3;spacingRight=3;rotatable=0;labelPosition=right;points=[];portConstraint=eastwest;strokeColor=inherit;horizontal=0;direction=south;dashed=1;" parent="1" vertex="1">
          <mxGeometry x="571" y="300" width="8" height="360" as="geometry" />
        </mxCell>
        <mxCell id="u08hA8u2R7ERL39mNpoH-54" value="" style="html=1;points=[[0,0,0,0,5],[0,1,0,0,-5],[1,0,0,0,5],[1,1,0,0,-5]];perimeter=orthogonalPerimeter;outlineConnect=0;targetShapes=umlLifeline;portConstraint=eastwest;newEdgeStyle={&quot;curved&quot;:0,&quot;rounded&quot;:0};" parent="1" vertex="1">
          <mxGeometry x="570" y="660" width="10" height="360" as="geometry" />
        </mxCell>
        <mxCell id="u08hA8u2R7ERL39mNpoH-55" value="gruppoDao:GruppoDao" style="shape=umlLifeline;perimeter=lifelinePerimeter;whiteSpace=wrap;html=1;container=1;dropTarget=0;collapsible=0;recursiveResize=0;outlineConnect=0;portConstraint=eastwest;newEdgeStyle={&quot;curved&quot;:0,&quot;rounded&quot;:0};" parent="1" vertex="1">
          <mxGeometry x="1000" y="40" width="140" height="1060" as="geometry" />
        </mxCell>
        <mxCell id="u08hA8u2R7ERL39mNpoH-56" value="" style="html=1;points=[[0,0,0,0,5],[0,1,0,0,-5],[1,0,0,0,5],[1,1,0,0,-5]];perimeter=orthogonalPerimeter;outlineConnect=0;targetShapes=umlLifeline;portConstraint=eastwest;newEdgeStyle={&quot;curved&quot;:0,&quot;rounded&quot;:0};" parent="u08hA8u2R7ERL39mNpoH-55" vertex="1">
          <mxGeometry x="64.5" y="650" width="11" height="50" as="geometry" />
        </mxCell>
        <mxCell id="u08hA8u2R7ERL39mNpoH-57" value="getByNome(nomeGruppo)" style="html=1;verticalAlign=bottom;startArrow=none;endArrow=block;startSize=8;curved=0;rounded=0;entryX=0;entryY=0;entryDx=0;entryDy=5;startFill=0;fontSize=13;" parent="1" edge="1">
          <mxGeometry relative="1" as="geometry">
            <mxPoint x="579" y="710" as="sourcePoint" />
            <mxPoint x="1064.5" y="710.0000000000001" as="targetPoint" />
          </mxGeometry>
        </mxCell>
        <mxCell id="u08hA8u2R7ERL39mNpoH-58" value="gruppoSelezionato" style="html=1;verticalAlign=bottom;endArrow=open;dashed=1;endSize=8;curved=0;rounded=0;fontSize=13;" parent="1" target="u08hA8u2R7ERL39mNpoH-54" edge="1">
          <mxGeometry relative="1" as="geometry">
            <mxPoint x="1063.5" y="739.9999999999998" as="sourcePoint" />
            <mxPoint x="579" y="745.0000000000002" as="targetPoint" />
          </mxGeometry>
        </mxCell>
        <mxCell id="u08hA8u2R7ERL39mNpoH-59" value="postDao:PostDao" style="shape=umlLifeline;perimeter=lifelinePerimeter;whiteSpace=wrap;html=1;container=1;dropTarget=0;collapsible=0;recursiveResize=0;outlineConnect=0;portConstraint=eastwest;newEdgeStyle={&quot;curved&quot;:0,&quot;rounded&quot;:0};" parent="1" vertex="1">
          <mxGeometry x="1205" y="40" width="140" height="1060" as="geometry" />
        </mxCell>
        <mxCell id="8B0qtVxzFhKtFc5LF8vU-1" value="" style="html=1;points=[[0,0,0,0,5],[0,1,0,0,-5],[1,0,0,0,5],[1,1,0,0,-5]];perimeter=orthogonalPerimeter;outlineConnect=0;targetShapes=umlLifeline;portConstraint=eastwest;newEdgeStyle={&quot;curved&quot;:0,&quot;rounded&quot;:0};" vertex="1" parent="u08hA8u2R7ERL39mNpoH-59">
          <mxGeometry x="65" y="730" width="10" height="30" as="geometry" />
        </mxCell>
        <mxCell id="8B0qtVxzFhKtFc5LF8vU-9" value="" style="html=1;points=[[0,0,0,0,5],[0,1,0,0,-5],[1,0,0,0,5],[1,1,0,0,-5]];perimeter=orthogonalPerimeter;outlineConnect=0;targetShapes=umlLifeline;portConstraint=eastwest;newEdgeStyle={&quot;curved&quot;:0,&quot;rounded&quot;:0};" vertex="1" parent="u08hA8u2R7ERL39mNpoH-59">
          <mxGeometry x="65" y="830" width="10" height="30" as="geometry" />
        </mxCell>
        <mxCell id="8B0qtVxzFhKtFc5LF8vU-2" value="getUltimoId()" style="html=1;verticalAlign=bottom;startArrow=none;endArrow=block;startSize=8;curved=0;rounded=0;entryX=0;entryY=0;entryDx=0;entryDy=5;startFill=0;fontSize=13;" edge="1" target="8B0qtVxzFhKtFc5LF8vU-1" parent="1">
          <mxGeometry relative="1" as="geometry">
            <mxPoint x="580" y="775" as="sourcePoint" />
          </mxGeometry>
        </mxCell>
        <mxCell id="8B0qtVxzFhKtFc5LF8vU-3" value="idPost+1" style="html=1;verticalAlign=bottom;endArrow=open;dashed=1;endSize=8;curved=0;rounded=0;fontSize=13;" edge="1" parent="1">
          <mxGeometry relative="1" as="geometry">
            <mxPoint x="1270" y="800" as="sourcePoint" />
            <mxPoint x="579" y="800" as="targetPoint" />
          </mxGeometry>
        </mxCell>
        <mxCell id="8B0qtVxzFhKtFc5LF8vU-5" value="postDaInserire:Post" style="shape=umlLifeline;perimeter=lifelinePerimeter;whiteSpace=wrap;html=1;container=1;dropTarget=0;collapsible=0;recursiveResize=0;outlineConnect=0;portConstraint=eastwest;newEdgeStyle={&quot;curved&quot;:0,&quot;rounded&quot;:0};" vertex="1" parent="1">
          <mxGeometry x="1410" y="40" width="120" height="1060" as="geometry" />
        </mxCell>
        <mxCell id="8B0qtVxzFhKtFc5LF8vU-6" value="" style="html=1;points=[[0,0,0,0,5],[0,1,0,0,-5],[1,0,0,0,5],[1,1,0,0,-5]];perimeter=orthogonalPerimeter;outlineConnect=0;targetShapes=umlLifeline;portConstraint=eastwest;newEdgeStyle={&quot;curved&quot;:0,&quot;rounded&quot;:0};" vertex="1" parent="8B0qtVxzFhKtFc5LF8vU-5">
          <mxGeometry x="55" y="780" width="10" height="30" as="geometry" />
        </mxCell>
        <mxCell id="8B0qtVxzFhKtFc5LF8vU-7" value="new Post(idPost,null,LocalDate.now(),LocalTime.now(),gruppoSelezionato,utenteConnesso)" style="html=1;verticalAlign=bottom;startArrow=none;endArrow=block;startSize=8;curved=0;rounded=0;entryX=0;entryY=0;entryDx=0;entryDy=5;fontSize=13;startFill=0;" edge="1" target="8B0qtVxzFhKtFc5LF8vU-6" parent="1">
          <mxGeometry relative="1" as="geometry">
            <mxPoint x="580" y="825" as="sourcePoint" />
          </mxGeometry>
        </mxCell>
        <mxCell id="8B0qtVxzFhKtFc5LF8vU-8" value="postDaInserire" style="html=1;verticalAlign=bottom;endArrow=open;dashed=1;endSize=8;curved=0;rounded=0;exitX=0;exitY=1;exitDx=0;exitDy=-5;exitPerimeter=0;fontSize=13;" edge="1" parent="1" source="8B0qtVxzFhKtFc5LF8vU-6" target="u08hA8u2R7ERL39mNpoH-54">
          <mxGeometry relative="1" as="geometry">
            <mxPoint x="1460" y="840" as="sourcePoint" />
            <mxPoint x="1380" y="840" as="targetPoint" />
          </mxGeometry>
        </mxCell>
        <mxCell id="8B0qtVxzFhKtFc5LF8vU-10" value="save(postDaInserire)" style="html=1;verticalAlign=bottom;startArrow=none;endArrow=block;startSize=8;curved=0;rounded=0;entryX=0;entryY=0;entryDx=0;entryDy=5;startFill=0;fontSize=13;" edge="1" target="8B0qtVxzFhKtFc5LF8vU-9" parent="1" source="u08hA8u2R7ERL39mNpoH-54">
          <mxGeometry relative="1" as="geometry">
            <mxPoint x="585" y="875" as="sourcePoint" />
          </mxGeometry>
        </mxCell>
        <mxCell id="8B0qtVxzFhKtFc5LF8vU-11" value="inserito" style="html=1;verticalAlign=bottom;endArrow=open;dashed=1;endSize=8;curved=0;rounded=0;fontSize=13;" edge="1" parent="1">
          <mxGeometry relative="1" as="geometry">
            <mxPoint x="1269.0000000000002" y="900" as="sourcePoint" />
            <mxPoint x="579" y="900" as="targetPoint" />
          </mxGeometry>
        </mxCell>
        <mxCell id="8B0qtVxzFhKtFc5LF8vU-12" value="ALT" style="shape=umlFrame;whiteSpace=wrap;html=1;pointerEvents=0;width=40;height=15;" vertex="1" parent="1">
          <mxGeometry x="790" y="910" width="300" height="140" as="geometry" />
        </mxCell>
        <mxCell id="8B0qtVxzFhKtFc5LF8vU-13" value="[inserito]" style="text;html=1;align=center;verticalAlign=middle;resizable=0;points=[];autosize=1;strokeColor=none;fillColor=none;" vertex="1" parent="1">
          <mxGeometry x="860" y="900" width="70" height="30" as="geometry" />
        </mxCell>
        <mxCell id="8B0qtVxzFhKtFc5LF8vU-14" value="" style="line;strokeWidth=1;fillColor=none;align=left;verticalAlign=middle;spacingTop=-1;spacingLeft=3;spacingRight=3;rotatable=0;labelPosition=right;points=[];portConstraint=eastwest;strokeColor=inherit;" vertex="1" parent="1">
          <mxGeometry x="790" y="976" width="300" height="8" as="geometry" />
        </mxCell>
        <mxCell id="8B0qtVxzFhKtFc5LF8vU-16" value="mostraMessaggioDiDialogo(&quot;Post inserito!&quot;,&quot;Messaggio&quot;)" style="html=1;verticalAlign=bottom;startArrow=none;endArrow=block;startSize=8;curved=0;rounded=0;entryX=0;entryY=0;entryDx=0;entryDy=5;fontSize=9;startFill=0;" edge="1" parent="1">
          <mxGeometry x="-0.04" relative="1" as="geometry">
            <mxPoint x="580" y="938" as="sourcePoint" />
            <mxPoint x="830" y="938" as="targetPoint" />
            <mxPoint as="offset" />
          </mxGeometry>
        </mxCell>
        <mxCell id="8B0qtVxzFhKtFc5LF8vU-19" value="" style="line;strokeWidth=1;fillColor=none;align=left;verticalAlign=middle;spacingTop=-1;spacingLeft=3;spacingRight=3;rotatable=0;labelPosition=right;points=[];portConstraint=eastwest;strokeColor=inherit;horizontal=0;direction=south;dashed=1;" vertex="1" parent="1">
          <mxGeometry x="571" y="1020" width="8" height="80" as="geometry" />
        </mxCell>
        <mxCell id="8B0qtVxzFhKtFc5LF8vU-20" value="" style="line;strokeWidth=1;fillColor=none;align=left;verticalAlign=middle;spacingTop=-1;spacingLeft=3;spacingRight=3;rotatable=0;labelPosition=right;points=[];portConstraint=eastwest;strokeColor=inherit;horizontal=0;direction=south;dashed=1;" vertex="1" parent="1">
          <mxGeometry x="76" y="80" width="8" height="30" as="geometry" />
        </mxCell>
        <mxCell id="8B0qtVxzFhKtFc5LF8vU-21" value="[!inserito]" style="text;html=1;align=center;verticalAlign=middle;resizable=0;points=[];autosize=1;strokeColor=none;fillColor=none;" vertex="1" parent="1">
          <mxGeometry x="860" y="976" width="70" height="30" as="geometry" />
        </mxCell>
        <mxCell id="8B0qtVxzFhKtFc5LF8vU-22" value="" style="html=1;verticalAlign=bottom;endArrow=open;dashed=1;endSize=8;curved=0;rounded=0;exitX=0;exitY=1;exitDx=0;exitDy=-5;exitPerimeter=0;" edge="1" parent="1" source="u08hA8u2R7ERL39mNpoH-54" target="u08hA8u2R7ERL39mNpoH-12">
          <mxGeometry relative="1" as="geometry">
            <mxPoint x="800" y="770" as="sourcePoint" />
            <mxPoint x="720" y="770" as="targetPoint" />
          </mxGeometry>
        </mxCell>
        <mxCell id="8B0qtVxzFhKtFc5LF8vU-23" value="" style="html=1;verticalAlign=bottom;endArrow=open;dashed=1;endSize=8;curved=0;rounded=0;" edge="1" parent="1">
          <mxGeometry relative="1" as="geometry">
            <mxPoint x="274.5" y="1080" as="sourcePoint" />
            <mxPoint x="85" y="1080" as="targetPoint" />
          </mxGeometry>
        </mxCell>
        <mxCell id="8B0qtVxzFhKtFc5LF8vU-17" value="mostraMessaggioDiDialogo(&quot;Errore nell&#39;inserimento!&quot;,&quot;Messaggio&quot;)" style="html=1;verticalAlign=bottom;startArrow=none;endArrow=block;startSize=8;curved=0;rounded=0;entryX=0;entryY=0;entryDx=0;entryDy=5;fontSize=9;startFill=0;" edge="1" parent="1" source="u08hA8u2R7ERL39mNpoH-54">
          <mxGeometry x="-0.04" relative="1" as="geometry">
            <mxPoint x="585" y="1000" as="sourcePoint" />
            <mxPoint x="835" y="1000" as="targetPoint" />
            <mxPoint as="offset" />
          </mxGeometry>
        </mxCell>
      </root>
    </mxGraphModel>
  </diagram>
</mxfile>
